<?xml version="1.0" encoding="utf-8"?>
<!-- Svg Vector Icons : http://www.onlinewebfonts.com/icon -->
<!DOCTYPE svg PUBLIC "-//W3C//DTD SVG 1.1//EN" "http://www.w3.org/Graphics/SVG/1.1/DTD/svg11.dtd">
<svg version="1.1" xmlns="http://www.w3.org/2000/svg" xmlns:xlink="http://www.w3.org/1999/xlink" x="0px" y="0px" viewBox="0 0 256 256" enable-background="new 0 0 256 256" xml:space="preserve">
<metadata> Svg Vector Icons : http://www.onlinewebfonts.com/icon </metadata>
<g><g><g><path d="M16.8,0.5c-2.4,0.7-5.7,4.2-6.4,6.6c-0.4,1.5-0.5,38.7-0.4,122l0.2,120l1.3,2c0.7,1.1,2.2,2.6,3.3,3.4l2.1,1.4h84.5H186l2.1-1.4c1.2-0.8,2.7-2.3,3.3-3.4l1.3-2l0.2-44.6l0.1-44.7l-2.6,3.3l-2.6,3.2v40.2c0,30-0.2,40.5-0.6,41.5c-1.4,3,3.7,2.9-85.7,2.9c-89.3,0-84.3,0.2-85.7-2.9c-0.5-1-0.6-29.1-0.6-120.1C15.1-1.2,14.9,7.2,18,5.8c1-0.5,20.9-0.6,83.5-0.6c89.3,0,84.3-0.2,85.6,2.9c0.4,0.9,0.6,4.3,0.6,9.6v8.3l2.7-1.3l2.7-1.3l-0.2-8.2c-0.2-7.8-0.2-8.3-1.6-10.3c-0.8-1.2-2.3-2.7-3.4-3.3l-2-1.3l-83.7-0.1C50.3,0,17.9,0.2,16.8,0.5z"/><path fill="#000000" d="M224.9,14.6c-3.7,0.9-6.8,2.1-8.1,3c-1.1,0.8-4.1,3.9-6.6,6.9c-2.5,3-4.9,5.6-5.2,5.9c-0.4,0.2-2.3,0.9-4.3,1.6c-6.5,2-7.1,2.4-13.5,11c-11.3,15.2-27.5,40-40.7,62.7c-10,17.2-12.2,23.5-12.2,35c0,8.3,0.9,12.6,3.9,18.6l2,3.9l-11.2,20.3c-6.2,11.2-11.9,21.3-12.6,22.5c-0.7,1.3-1.2,2.2-1.1,2.2c0.2,0,7.8-8.9,17-19.8l16.8-19.8l2.7-0.4c3.8-0.5,15.4-3.2,20.7-4.8c3.6-1.1,4.9-1.8,7-3.8c4.3-4.1,9.4-12.3,19.4-32.2c8.4-16.7,10.5-20.3,17.7-31.2c4.5-6.7,11-16.2,14.4-20.9c7.8-10.8,9.3-13.9,10.4-20.3c0.5-2.8,1.7-8.6,2.7-12.9c1.6-6.3,1.9-8.9,1.9-13.3c0.1-5-0.1-5.8-1.4-8.5c-2.2-4.6-6.4-7.2-11.3-7.2C231.9,13.1,228.2,13.7,224.9,14.6z M237.5,19.6c2.7,2,3.3,3.7,3.2,9.1c0,3.8-0.4,6.6-1.7,11.8c-0.9,3.7-2.1,9.3-2.6,12.3c-1.2,6.8-2.2,8.9-9.8,19.6c-3.3,4.6-9.8,14-14.3,20.8c-7.1,10.6-9.4,14.6-16.4,28.5c-8.9,17.8-12.8,24.8-16.3,29.7c-3.4,4.8-4.8,5.8-9.5,7.3c-4.6,1.4-16.9,4.2-17.3,4c-0.1-0.1,13.6-22.6,30.4-49.9c32.2-52.2,31.7-51.5,31.4-51.5c-0.1,0-16.2,21.9-35.7,48.6c-30.8,42.1-35.6,48.4-36.1,47.6c-0.4-0.5-1.3-2.8-2.1-5c-1.3-3.8-1.5-4.8-1.4-11.5c0-6.4,0.2-7.9,1.5-12c1.7-5.8,5.9-13.7,14.7-28.5c12.9-21.6,25.1-40.1,35.5-54l5.8-7.7l4.1-1.3c6.6-2.1,7.7-2.9,12.9-9.1c2.6-3.2,5.3-6.1,6-6.4c0.6-0.3,3.4-1.3,6.1-2.1C231.6,18,235.4,18,237.5,19.6z"/><path fill="#000000" d="M36.1,31.3v5.2h65.4h65.4v-5.2v-5.2h-65.4H36.1V31.3z"/><path fill="#000000" d="M36.1,62.7v5.2h60.6h60.5l3.1-4.8c1.7-2.6,3.2-5,3.3-5.2c0.1-0.3-28.1-0.5-63.6-0.5H36.1V62.7z"/><path fill="#000000" d="M36.1,94.1v5.2H87h50.9l2.9-4.9c1.6-2.7,2.9-5.1,2.9-5.2c0-0.2-24.2-0.3-53.9-0.3H36.1V94.1z"/><path fill="#000000" d="M67.9,120.2c-11.2,2-19.8,9.9-22.6,20.8c-4.4,16.8,9,34.2,26.5,34.2c7.7,0,13.6-2.4,19.3-7.7c8.8-8.3,11.1-20.8,6-31.7c-4.2-8.9-13.2-15-23-15.7C72,119.9,69.2,120,67.9,120.2z M60.1,139.5c0.8,0.6,2.9,1.5,4.8,2.1c2.8,0.9,4.3,1.1,8.4,0.9c5.1-0.2,4.8-0.1,12.7-4c0.8-0.4,5.1,4.6,6.7,7.9c1.1,2.2,1.6,4,1.6,5.6c0,5.5-5.8,13.2-12.6,16.4c-3.3,1.6-3.9,1.7-9.6,1.7s-6.2-0.1-9.6-1.7c-4.9-2.3-8.8-6.2-11.2-10.9c-2.2-4.4-2.1-6.3,0.1-10.9c1.4-2.9,5.7-8.1,6.6-8.1C58.4,138.5,59.3,139,60.1,139.5z"/><path fill="#000000" d="M50.4,187.1c-8.2,6.5-13.4,14.1-14.5,21.3c-0.3,2-1.6,8.8-2.7,15.1L31,235l41.3,0.2c22.7,0.1,41.4,0.1,41.4-0.1c0.1-0.1-0.9-5.5-2.1-12.1c-1.3-6.5-2.4-12.6-2.4-13.4c0-2.4-1.9-7.6-4.1-11.2c-2.2-3.6-8.1-9.7-11.7-12.2l-2.5-1.7l-1.8,2.7c-0.9,1.5-4.1,6.6-6.9,11.2c-2.9,4.7-5.3,8.5-5.5,8.5c-0.2,0-0.6-4-1-8.9c-0.6-8.6-0.6-8.9,0.4-9.9c1.1-1.1,1-2.5-0.2-3.3c-0.9-0.6-6.9-0.5-7.5,0.2c-0.9,0.9-0.8,2.3,0.2,3.3c0.7,0.7,0.8,1.7,0.5,7.2c-0.2,3.5-0.5,7.6-0.7,9.2l-0.4,2.8l-7.1-11.5c-3.9-6.4-7.2-11.6-7.3-11.6C53.7,184.6,52.2,185.7,50.4,187.1z"/></g></g></g>
</svg>
