<?xml version="1.0" encoding="utf-8"?>
<!-- Svg Vector Icons : http://www.onlinewebfonts.com/icon -->
<!DOCTYPE svg PUBLIC "-//W3C//DTD SVG 1.1//EN" "http://www.w3.org/Graphics/SVG/1.1/DTD/svg11.dtd">
<svg version="1.1" xmlns="http://www.w3.org/2000/svg" xmlns:xlink="http://www.w3.org/1999/xlink" x="0px" y="0px" viewBox="0 0 256 256" enable-background="new 0 0 256 256" xml:space="preserve">
<metadata> Svg Vector Icons : http://www.onlinewebfonts.com/icon </metadata>
<g><g><path d="M218.5,38.5h-14.2v-8.4c0-14-2.5-25.3-5.6-25.3h-36.6c-3.1,0-5.6,11.3-5.6,25.3v8.4H99.4v-8.4c0-14-2.5-25.3-5.6-25.3H57.2c-3.1,0-5.6,11.3-5.6,25.3v8.4H37.5C22.3,38.5,10,49.9,10,63.8v162c0,14,12.3,25.3,27.5,25.3h181c15.2,0,27.5-11.3,27.5-25.3v-162C246,49.9,233.7,38.5,218.5,38.5z M222.8,88.9v39.6h-31.5V88.9H222.8z M79.6,137.8h46.6v46.6H79.6V137.8z M70.2,184.4h-37v-46.6h37L70.2,184.4L70.2,184.4z M126.1,193.7v37.9H79.6v-37.9H126.1z M135.4,193.7H182v37.9h-46.6V193.7z M135.4,184.4v-46.6H182v46.6L135.4,184.4L135.4,184.4z M191.3,137.8h31.5v46.6h-31.5V137.8z M173.9,21.1c0-3.4,2.8-6.2,6.2-6.2s6.2,2.8,6.2,6.2v38.5c0,3.4-2.8,6.2-6.2,6.2s-6.2-2.8-6.2-6.2V21.1z M182,88.9v39.6h-46.6V88.9H182z M126.1,88.9v39.6H79.6V88.9H126.1z M68.5,21.1c0-3.4,2.8-6.2,6.2-6.2c3.4,0,6.2,2.8,6.2,6.2v38.5c0,3.4-2.8,6.2-6.2,6.2c-3.4,0-6.2-2.8-6.2-6.2V21.1z M70.2,88.9v39.6h-37V88.9H70.2z M33.2,231.6v-37.9h37v37.9H33.2z M191.3,231.6v-37.9h31.5v37.9H191.3z"/></g></g>
</svg>
