<svg width="13" height="13" viewBox="0 0 13 13" fill="none" xmlns="http://www.w3.org/2000/svg">
<path d="M6.4987 3.79036C6.35504 3.79036 6.21727 3.84743 6.11568 3.94902C6.0141 4.0506 5.95703 4.18837 5.95703 4.33203V6.4987C5.95703 6.64236 6.0141 6.78013 6.11568 6.88171C6.21727 6.9833 6.35504 7.04036 6.4987 7.04036C6.64236 7.04036 6.78013 6.9833 6.88172 6.88171C6.9833 6.78013 7.04037 6.64236 7.04037 6.4987V4.33203C7.04037 4.18837 6.9833 4.0506 6.88172 3.94902C6.78013 3.84743 6.64236 3.79036 6.4987 3.79036ZM6.99703 8.45953C6.98518 8.42501 6.96878 8.39223 6.94828 8.36203L6.88328 8.28078C6.80711 8.20562 6.71039 8.15471 6.60531 8.13446C6.50023 8.11422 6.39151 8.12555 6.29287 8.16703C6.22723 8.19446 6.16677 8.23294 6.11412 8.28078C6.06391 8.33139 6.0242 8.39142 5.99724 8.45742C5.97029 8.52341 5.95662 8.59408 5.95703 8.66536C5.95789 8.73615 5.97261 8.80608 6.00037 8.8712C6.02469 8.93842 6.06351 8.99946 6.11406 9.05001C6.1646 9.10056 6.22565 9.13937 6.29287 9.1637C6.35771 9.19236 6.42781 9.20716 6.4987 9.20716C6.56959 9.20716 6.6397 9.19236 6.70453 9.1637C6.77175 9.13937 6.8328 9.10056 6.88335 9.05001C6.93389 8.99946 6.97271 8.93842 6.99703 8.8712C7.02479 8.80608 7.03951 8.73615 7.04037 8.66536C7.04303 8.6293 7.04303 8.59309 7.04037 8.55703C7.03104 8.52249 7.01642 8.4896 6.99703 8.45953ZM6.4987 1.08203C5.42739 1.08203 4.38013 1.39971 3.48936 1.9949C2.5986 2.5901 1.90433 3.43606 1.49435 4.42583C1.08438 5.4156 0.97711 6.50471 1.18611 7.55544C1.39512 8.60617 1.911 9.57133 2.66854 10.3289C3.42607 11.0864 4.39123 11.6023 5.44196 11.8113C6.49269 12.0203 7.5818 11.913 8.57157 11.503C9.56134 11.0931 10.4073 10.3988 11.0025 9.50804C11.5977 8.61727 11.9154 7.57001 11.9154 6.4987C11.9154 5.78737 11.7753 5.08301 11.503 4.42583C11.2308 3.76865 10.8318 3.17152 10.3289 2.66854C9.82588 2.16555 9.22875 1.76656 8.57157 1.49435C7.91439 1.22214 7.21003 1.08203 6.4987 1.08203ZM6.4987 10.832C5.64165 10.832 4.80384 10.5779 4.09123 10.1017C3.37862 9.62558 2.8232 8.94881 2.49522 8.15699C2.16724 7.36518 2.08143 6.49389 2.24863 5.65331C2.41583 4.81272 2.82854 4.0406 3.43457 3.43457C4.0406 2.82854 4.81273 2.41583 5.65331 2.24863C6.49389 2.08143 7.36518 2.16724 8.157 2.49522C8.94881 2.8232 9.62558 3.37861 10.1017 4.09123C10.5779 4.80384 10.832 5.64165 10.832 6.4987C10.832 7.64797 10.3755 8.75017 9.56283 9.56283C8.75017 10.3755 7.64797 10.832 6.4987 10.832Z" fill="#E30000"/>
</svg>
