<?xml version="1.0" encoding="utf-8"?>
<!-- Svg Vector Icons : http://www.onlinewebfonts.com/icon -->
<!DOCTYPE svg PUBLIC "-//W3C//DTD SVG 1.1//EN" "http://www.w3.org/Graphics/SVG/1.1/DTD/svg11.dtd">
<svg version="1.1" xmlns="http://www.w3.org/2000/svg" xmlns:xlink="http://www.w3.org/1999/xlink" x="0px" y="0px" viewBox="0 0 256 256" enable-background="new 0 0 256 256" xml:space="preserve">
<metadata> Svg Vector Icons : http://www.onlinewebfonts.com/icon </metadata>
<g><g><path d="M144.2,55.9h-14.4c-2.4,0-4.4,1.9-4.4,4.3v14.5c0,2.4,2,4.3,4.4,4.3h14.4c2.4,0,4.4-1.9,4.4-4.3V60.2C148.5,57.8,146.6,55.9,144.2,55.9z M144.2,102.1h-14.4c-2.4,0-4.4,1.9-4.4,4.3v14.4c0,2.4,2,4.3,4.4,4.3h14.4c2.4,0,4.4-1.9,4.4-4.3v-14.4C148.5,104,146.6,102.1,144.2,102.1z M237.7,229h-14.1v-65.3c0-11.8-10.6-21.3-22.5-21.3h-12.1V35.1c0-10.9-8.9-19.7-19.9-19.7H53.1c-11,0-19.9,8.8-19.9,19.7V229H18.3c-4.6,0-8.3,1.5-8.3,6v-0.1c0,4.5,3.7,5.7,8.3,5.7h219.4c4.6,0,8.3-1.9,8.3-6.4v0.5C246,230.1,242.3,229,237.7,229z M171.4,225.9c0,1.8-1.5,3.3-3.3,3.3h-22.1c-1.8,0-3.3-1.5-3.3-3.3v-28.3c0-1.8,1.5-3.3,3.3-3.3h22.1c1.8,0,3.3,1.5,3.3,3.3V225.9L171.4,225.9z M171.4,179.6c0,1.8-1.5,3.3-3.3,3.3h-22.1c-1.8,0-3.3-1.5-3.3-3.3v-22.1c0-1.8,1.5-3.5,3.3-3.5h22.1c1.8,0,3.3,1.5,3.3,3.3V179.6L171.4,179.6z M177.4,142.4h-25.2c-11.9,0-20.9,9.5-20.9,21.3V229H44.7V40.1C44.7,32.8,50.6,27,58,27h106.1c7.3,0,13.3,5.9,13.3,13.1V142.4L177.4,142.4z M212,225.9c0,1.8-1.5,3.3-3.3,3.3h-22.2c-1.8,0-3.3-1.5-3.3-3.3v-28.3c0-1.8,1.5-3.3,3.3-3.3h22.2c1.8,0,3.3,1.5,3.3,3.3V225.9z M212,179.6c0,1.8-1.5,3.3-3.3,3.3h-22.2c-1.8,0-3.3-1.5-3.3-3.3v-22.3c0-1.8,1.5-3.3,3.3-3.3h22.2c1.8,0,3.3,1.5,3.3,3.3V179.6z M92.3,102.1H77.8c-2.4,0-4.3,1.9-4.3,4.3v14.4c0,2.4,2,4.3,4.3,4.3h14.5c2.4,0,4.3-1.9,4.3-4.3v-14.4C96.6,104,94.6,102.1,92.3,102.1z M92.3,55.9H77.8c-2.4,0-4.3,1.9-4.3,4.3v14.5c0,2.4,2,4.3,4.3,4.3h14.5c2.4,0,4.3-1.9,4.3-4.3V60.2C96.6,57.8,94.6,55.9,92.3,55.9z M92.3,148.3H77.8c-2.4,0-4.3,1.9-4.3,4.3v14.5c0,2.4,2,4.3,4.3,4.3h14.5c2.4,0,4.3-1.9,4.3-4.3v-14.5C96.6,150.2,94.6,148.3,92.3,148.3z"/></g></g>
</svg>
