<svg viewBox="0 0 24 24" fill="none" xmlns="http://www.w3.org/2000/svg"><path d="M16.67 2.061c-.222.081-.42.248-.542.455-.092.156-.108.229-.107.484 0 .213.022.34.075.44.04.077.39.46.777.85l.704.71-.704.71c-.387.39-.734.771-.772.845-.229.453-.045 1.046.407 1.312.165.097.234.113.492.112.213 0 .34-.022.44-.075.077-.04.459-.39.85-.777l.71-.704.71.704c.391.387.773.737.85.777.1.053.227.075.44.075.258.001.327-.015.492-.112.222-.13.409-.369.473-.603a1.187 1.187 0 0 0-.066-.709c-.038-.074-.385-.455-.772-.845L20.423 5l.704-.71c.387-.39.737-.773.777-.85.053-.1.075-.227.075-.44.001-.255-.015-.328-.107-.484a1 1 0 0 0-1.215-.449c-.166.056-.312.18-.927.787l-.73.72-.73-.72c-.615-.607-.761-.731-.927-.787a.998.998 0 0 0-.673-.006m-9.75.981c-.765.049-1.246.162-1.74.409A3.776 3.776 0 0 0 3.124 6.16C3.015 6.718 3 7.439 3 12c0 5.284.01 5.54.245 6.32.332 1.102 1.333 2.103 2.435 2.435.78.235 1.036.245 6.32.245 5.284 0 5.54-.01 6.32-.245 1.102-.332 2.105-1.334 2.435-2.435.229-.763.252-1.21.237-4.66l-.012-2.96-.109-.186a1.01 1.01 0 0 0-1.742 0l-.109.186-.013.935-.012.934-.648-.637c-.397-.391-.733-.686-.87-.764-.572-.323-1.379-.324-1.954 0-.155.087-.572.472-1.373 1.267L13 13.577l-1.41-1.403c-1.307-1.301-1.432-1.413-1.711-1.55a2.043 2.043 0 0 0-1.758 0c-.279.137-.404.25-1.714 1.552L4.995 13.58l.016-3.4c.018-3.674.019-3.684.237-4.132.118-.242.558-.682.8-.8.441-.215.479-.217 3.992-.244l3.26-.024.192-.113c.756-.444.631-1.561-.202-1.812-.148-.045-.722-.054-3.046-.049-1.575.003-3.071.019-3.324.036m4.92 12.216c3.019 3.017 2.976 2.98 3.38 2.981.328.001.493-.067.723-.296.229-.23.297-.395.296-.723-.001-.358-.098-.494-.991-1.39l-.826-.831 1.039-1.04 1.038-1.039 1.255 1.25 1.254 1.25-.024.9c-.036 1.324-.117 1.614-.584 2.081-.299.3-.58.45-.982.527-.407.076-10.429.076-10.836-.001a1.879 1.879 0 0 1-1.245-.829c-.183-.287-.255-.563-.298-1.158l-.038-.52 1.989-1.99a154.218 154.218 0 0 1 2.009-1.99c.011 0 1.289 1.268 2.841 2.818" fill-rule="evenodd"/></svg>
