<?xml version="1.0" encoding="utf-8"?>
<!-- Svg Vector Icons : http://www.onlinewebfonts.com/icon -->
<!DOCTYPE svg PUBLIC "-//W3C//DTD SVG 1.1//EN" "http://www.w3.org/Graphics/SVG/1.1/DTD/svg11.dtd">
<svg version="1.1" xmlns="http://www.w3.org/2000/svg" xmlns:xlink="http://www.w3.org/1999/xlink" x="0px" y="0px" viewBox="0 0 256 256" enable-background="new 0 0 256 256" xml:space="preserve">
<metadata> Svg Vector Icons : http://www.onlinewebfonts.com/icon </metadata>
<g><g><path d="M183.7,25.8C130.8,26.9,111,68.6,111,68.6c-6-7.3-20.7-18.4-45.8-17C42,52.9,30.8,63.2,22.2,74.8c-25.5,34.5-14,70.7,61.9,132.8c4.4,3.6,13.5,5.1,17.9,1.3c4.1-3.4,9.7-15.1-4.3-26.7C61.5,152,43.1,131.7,58.3,121c11.9-8.3,20,30.6,57.2,30.6c39.3,0,58.4-50.2,70.3-52.4c19.7-3.6,13.7,28.8-17.6,65.5c-9.4,11-24.2,22.6-37.3,33.5c-9.9,8.3-18.7,11.2-20.5,18.3c-2.6,10,4.6,12.9,12.1,13.8c2.1,0.1,4.3-0.2,6.6-0.7c5.6-1.3,11.7-4.9,20.7-10.1c39.4-22.6,94.4-68.9,96.2-119.6C247.2,62.3,224.5,24.9,183.7,25.8z M117.6,134.2c-10.9,0-19.8-8.8-19.8-19.7c0-10.9,8.9-19.7,19.8-19.7c10.9,0,19.8,8.8,19.8,19.7C137.4,125.4,128.5,134.2,117.6,134.2z"/></g></g>
</svg>
