<?xml version="1.0" encoding="utf-8"?>
<!-- Svg Vector Icons : http://www.onlinewebfonts.com/icon -->
<!DOCTYPE svg PUBLIC "-//W3C//DTD SVG 1.1//EN" "http://www.w3.org/Graphics/SVG/1.1/DTD/svg11.dtd">
<svg version="1.1" xmlns="http://www.w3.org/2000/svg" xmlns:xlink="http://www.w3.org/1999/xlink" x="0px" y="0px" viewBox="0 0 256 256" enable-background="new 0 0 256 256" xml:space="preserve">
<metadata> Svg Vector Icons : http://www.onlinewebfonts.com/icon </metadata>
<g><g><g><path d="M117.7,10c-12.8,1.5-20.2,3.2-30.6,7c-34.7,12.6-62,41.7-72.5,77.3C11,106.3,10,113.8,10,127.9c0,12.8,0.5,17.5,3,27.7c8.7,35.7,34.4,66.3,67.8,80.7c26.7,11.4,56,12.9,83.3,4.1c36.1-11.6,64.6-40.2,76.2-76.2c3.5-11.1,5.1-20,5.5-32.1c2.1-59.6-40-110.8-99.3-120.9c-4.3-0.7-8.6-1-16.5-1.2C124.2,9.9,118.6,9.9,117.7,10z M142.5,23.2c38.9,5.2,72.4,32.7,85.2,69.9c4.2,12.3,5.7,21.6,5.7,34.8c0,17.2-3.2,31.1-10.7,46.4c-15.6,31.8-45.1,53.1-80.5,58.3c-7.1,1.1-21.5,1.1-28.7,0c-35.1-5.2-64.4-26.2-80.1-57.4c-5.3-10.5-8.7-21.2-10.4-33.1c-1-7.1-1-21.5,0-28.7c3.5-23.5,13.6-43.8,30.1-60.3C77,29.5,109,18.7,142.5,23.2z"/><path fill="#000000" d="M123.8,72.9c-3.8,1.8-5.9,5.6-5.4,9.9c0.4,3.4,2.1,5.8,5.3,7.3c3.2,1.6,5.4,1.6,8.5,0c9.3-4.6,6.1-18.3-4.3-18.2C126.6,72,124.9,72.4,123.8,72.9z"/><path fill="#000000" d="M124.1,104.6c-0.9,0.5-2,1.7-2.5,2.5c-1,1.6-1,2.4-0.9,40.8l0.1,39.3l1.8,1.8c3.7,3.7,9.5,2.9,11.9-1.8c0.6-1.1,0.7-7.7,0.7-39.9c0-37.6,0-38.6-1-40.2c-1.4-2.2-3.7-3.5-6.3-3.5C126.6,103.6,125.1,104,124.1,104.6z"/></g></g></g>
</svg>
