<?xml version="1.0" encoding="utf-8"?>
<!-- Svg Vector Icons : http://www.onlinewebfonts.com/icon -->
<!DOCTYPE svg PUBLIC "-//W3C//DTD SVG 1.1//EN" "http://www.w3.org/Graphics/SVG/1.1/DTD/svg11.dtd">
<svg version="1.1" xmlns="http://www.w3.org/2000/svg" xmlns:xlink="http://www.w3.org/1999/xlink" x="0px" y="0px" viewBox="0 0 256 256" enable-background="new 0 0 256 256" xml:space="preserve">
<metadata> Svg Vector Icons : http://www.onlinewebfonts.com/icon </metadata>
<g><g><path d="M123.7,83.4L110.6,122c-0.8,2.5,1,5.1,3.6,5.1h27c2.7,0,4.5-2.6,3.6-5.2l-14-38.5C129.6,80,124.8,80,123.7,83.4z"/><path fill="#000000" d="M217.2,22.8H38.9C23,22.8,10,35.8,10,51.7v120.5c0,15.9,13,28.9,28.9,28.9h59.5l13,22.5c7.4,12.8,25.9,12.8,33.3,0l13-22.5h59.5c15.9,0,28.9-13,28.9-28.9V51.7C246.1,35.8,233.1,22.8,217.2,22.8z M158.1,167.8l-3.7-11.1c-1.4-4.3-5.4-7.1-9.9-7.1h-35.7c-3.9,0-7.3,2.5-8.5,6.1l-4.1,12.2c-2,6-7.7,10.1-14,10.1l0,0c-10.3,0-17.5-10.3-13.8-19.9l34.8-93.5c3.8-10,13.3-16.6,24-16.6l0,0c10.6,0,20.2,6.6,23.9,16.5l35.3,93.6c3.7,9.7-3.5,20-13.8,20h-0.5C165.8,177.9,160.1,173.8,158.1,167.8z"/></g></g>
</svg>
