<svg width="33" height="33" viewBox="0 0 33 33" fill="none" xmlns="http://www.w3.org/2000/svg">
<g opacity="1">
<path d="M8 16.5H12.7222M8 16.5C8 21.1944 11.8056 25 16.5 25M8 16.5C8 11.8056 11.8056 8 16.5 8M12.7222 16.5H20.2778M12.7222 16.5C12.7222 21.1944 14.4136 25 16.5 25M12.7222 16.5C12.7222 11.8056 14.4136 8 16.5 8M20.2778 16.5H25M20.2778 16.5C20.2778 11.8056 18.5864 8 16.5 8M20.2778 16.5C20.2778 21.1944 18.5864 25 16.5 25M25 16.5C25 11.8056 21.1944 8 16.5 8M25 16.5C25 21.1944 21.1944 25 16.5 25" stroke-width="1.5" stroke-linecap="round" stroke-linejoin="round"/>
</g>
</svg>
