<svg width="300" height="55" viewBox="0 0 300 55" fill="none" xmlns="http://www.w3.org/2000/svg">
<g clip-path="url(#clip0_1453_499)">
<path d="M79.1348 4.90846V0H23.7522V4.90846H0L2.52665 10.4092V19.3241H6.34243V37.8366L13.257 42.5845V19.3256H21.2112V48.045L28.1258 52.7929V19.3256H36.0771V54.6814L42.9917 52.5004V19.3256H59.8925V47.1746L66.807 44.9935V19.3256H74.7584V42.4855L81.673 40.3073V19.3256H89.6272V37.7993L96.5417 35.6183V19.3256H100.358V10.4106L102.884 4.9099H79.132L79.1348 4.90846ZM94.8583 13.8234H8.02878V10.4092H94.8583V13.8234Z" />
<path d="M133.065 9.77713C132.42 9.77713 131.88 9.55487 131.446 9.11177C131.013 8.66724 130.797 8.1209 130.797 7.47131C130.797 6.82173 131.013 6.27969 131.446 5.83372C131.88 5.38776 132.43 5.16406 133.097 5.16406C133.484 5.16406 133.811 5.22286 134.082 5.34187C134.352 5.46089 134.605 5.63297 134.844 5.8581L134.34 6.43742C133.94 6.06746 133.524 5.88248 133.091 5.88248C132.658 5.88248 132.314 6.03591 132.037 6.34135C131.759 6.64678 131.62 7.02248 131.62 7.46845C131.62 7.91441 131.76 8.28581 132.042 8.59267C132.321 8.90098 132.673 9.05441 133.093 9.05441C133.348 9.05441 133.573 9.00566 133.768 8.91102C133.963 8.81637 134.165 8.67011 134.373 8.47509L134.877 8.98558C134.626 9.24943 134.36 9.44588 134.081 9.57781C133.801 9.70973 133.463 9.7757 133.067 9.7757L133.065 9.77713Z" />
<path d="M135.689 9.69965L137.653 5.20703H138.38L140.343 9.69965H139.514L139.062 8.62274H136.953L136.494 9.69965H135.691H135.689ZM137.238 7.9287H138.774L138.002 6.14484L137.238 7.9287Z"/>
<path d="M141.484 9.69935V5.23828H142.269V7.0924H144.397V5.23828H145.18V9.69935H144.397V7.81942H142.269V9.69935H141.484Z" />
<path d="M146.701 9.69935V5.23828H147.486V7.481L149.608 5.23828H150.57L148.716 7.15693L150.653 9.69935H149.704L148.181 7.6918L147.487 8.40591V9.69935H146.703H146.701Z" />
<path d="M152.795 9.69935V5.9653H151.381V5.23828H155V5.9653H153.586V9.69935H152.796H152.795Z" />
<path d="M155.986 8.12576V7.36719H157.873V8.12576H155.986Z" />
<path d="M159.178 9.69935V5.23828H162.817V9.69935H162.033V5.94666H159.962V9.69935H159.178Z" />
<path d="M164.341 9.69935V5.23828H167.648V5.93949H165.124V7.09957H167.361V7.80078H165.124V8.99957H167.68V9.70078H164.34L164.341 9.69935Z" />
<path d="M170.082 9.69935V5.9653H168.668V5.23828H172.287V5.9653H170.873V9.69935H170.083H170.082Z" />
<path d="M173.492 9.69935V5.23828H176.798V5.93949H174.275V7.09957H176.512V7.80078H174.275V8.99957H176.83V9.70078H173.49L173.492 9.69935Z" />
<path d="M178.137 9.69935V5.23828H179.896C180.414 5.23828 180.827 5.37451 181.132 5.64696C181.438 5.91798 181.591 6.28364 181.591 6.74251C181.591 7.20138 181.422 7.59572 181.085 7.86387C180.747 8.13202 180.321 8.26538 179.807 8.26538H178.921V9.69935H178.138H178.137ZM178.92 7.55844H179.832C180.124 7.55844 180.358 7.48387 180.533 7.33474C180.706 7.18561 180.794 6.99059 180.794 6.74825C180.794 6.493 180.708 6.29655 180.536 6.15889C180.364 6.02123 180.128 5.9524 179.832 5.9524H178.92V7.55844Z" />
<path d="M182.77 9.69935V5.23828H186.096V5.94523H183.547V6.97051H184.79C185.286 6.97051 185.68 7.08953 185.972 7.32757C186.263 7.56561 186.408 7.89685 186.408 8.32131C186.408 8.74576 186.261 9.10282 185.969 9.34086C185.675 9.5789 185.269 9.69792 184.751 9.69792H182.77V9.69935ZM183.547 8.99814H184.579C184.936 8.99814 185.199 8.94652 185.369 8.84184C185.54 8.73859 185.625 8.55504 185.625 8.29119C185.625 7.85384 185.323 7.63444 184.72 7.63444H183.547V8.99814Z" />
<path d="M188.442 9.76961C188.136 9.76961 187.845 9.69505 187.568 9.54591L187.868 8.95942C188.035 9.05263 188.217 9.09995 188.416 9.09995C188.684 9.09995 188.918 8.93791 189.117 8.61527L187.256 5.23828H188.135L189.524 7.83233L190.748 5.23828H191.595L189.856 8.72425C189.511 9.42116 189.04 9.76961 188.442 9.76961Z" />
<path d="M192.711 9.69935V5.23828H194.47C194.988 5.23828 195.401 5.37451 195.706 5.64696C196.012 5.91798 196.165 6.28364 196.165 6.74251C196.165 7.20138 195.996 7.59572 195.659 7.86387C195.322 8.13202 194.896 8.26538 194.382 8.26538H193.495V9.69935H192.711ZM193.495 7.55844H194.407C194.7 7.55844 194.934 7.48387 195.109 7.33474C195.282 7.18561 195.369 6.99059 195.369 6.74825C195.369 6.493 195.283 6.29655 195.111 6.15889C194.939 6.02123 194.704 5.9524 194.407 5.9524H193.495V7.55844Z" />
<path d="M197.344 9.69935V5.23828H200.345V5.94523H198.121V9.69792H197.344V9.69935Z" />
<path d="M203.575 9.77713C202.93 9.77713 202.389 9.55487 201.956 9.11177C201.523 8.66724 201.307 8.1209 201.307 7.47131C201.307 6.82173 201.523 6.27969 201.956 5.83372C202.389 5.38776 202.94 5.16406 203.607 5.16406C203.992 5.16406 204.321 5.22286 204.592 5.34187C204.861 5.46089 205.115 5.63297 205.353 5.8581L204.85 6.43742C204.45 6.06746 204.034 5.88248 203.601 5.88248C203.168 5.88248 202.824 6.03591 202.546 6.34135C202.267 6.64678 202.128 7.02248 202.128 7.46845C202.128 7.91441 202.269 8.28581 202.548 8.59267C202.828 8.90098 203.179 9.05441 203.6 9.05441C203.855 9.05441 204.08 9.00566 204.275 8.91102C204.47 8.81637 204.672 8.67011 204.88 8.47509L205.383 8.98558C205.132 9.24943 204.867 9.44588 204.588 9.57781C204.308 9.70973 203.97 9.7757 203.574 9.7757L203.575 9.77713Z" />
<path d="M206.584 9.69935V5.23828H207.368V7.481L209.491 5.23828H210.453L208.599 7.15693L210.536 9.69935H209.587L208.064 7.6918L207.37 8.40591V9.69935H206.585H206.584Z" />
<path d="M211.58 9.69935V5.23828H212.351V8.49482L214.607 5.23828H215.339V9.69935H214.568V6.44998L212.318 9.69935H211.578H211.58Z" />
<path d="M216.869 9.69947V5.2384H217.64V8.49494L219.896 5.2384H220.628V9.69947H219.857V6.45011L217.607 9.69947H216.867H216.869ZM219.443 4.64904C219.265 4.80821 219.041 4.88852 218.773 4.88852C218.505 4.88852 218.283 4.80821 218.103 4.64904C217.925 4.48987 217.812 4.27191 217.766 3.99516L218.244 3.90625C218.324 4.19591 218.5 4.33931 218.773 4.33931C219.045 4.33931 219.213 4.19448 219.302 3.90625L219.774 3.99516C219.731 4.27191 219.62 4.48987 219.443 4.64904Z" />
<path d="M224.445 9.69935V5.23828H227.447V5.94523H225.223V9.69792H224.445V9.69935Z" />
<path d="M232.41 9.10317C231.969 9.55343 231.409 9.77856 230.734 9.77856C230.059 9.77856 229.502 9.55487 229.065 9.1089C228.628 8.66294 228.408 8.1166 228.408 7.47131C228.408 6.82603 228.629 6.28973 229.071 5.83946C229.512 5.38919 230.072 5.16406 230.747 5.16406C231.422 5.16406 231.979 5.38776 232.416 5.83372C232.854 6.27969 233.073 6.82603 233.073 7.47131C233.073 8.1166 232.852 8.6529 232.41 9.10317ZM229.66 8.59698C229.947 8.90528 230.31 9.05871 230.747 9.05871C231.184 9.05871 231.544 8.90528 231.827 8.59984C232.109 8.29441 232.25 7.91728 232.25 7.47131C232.25 7.02535 232.106 6.65395 231.82 6.34708C231.533 6.03878 231.17 5.88535 230.733 5.88535C230.295 5.88535 229.935 6.03878 229.653 6.34422C229.37 6.64965 229.23 7.02535 229.23 7.47131C229.23 7.91728 229.373 8.28867 229.66 8.59554V8.59698Z" />
<path d="M236.472 9.77713C235.826 9.77713 235.286 9.55487 234.853 9.11177C234.42 8.66724 234.203 8.1209 234.203 7.47131C234.203 6.82173 234.42 6.27969 234.853 5.83372C235.286 5.38776 235.836 5.16406 236.503 5.16406C236.889 5.16406 237.217 5.22286 237.488 5.34187C237.758 5.46089 238.012 5.63297 238.25 5.8581L237.746 6.43742C237.346 6.06746 236.931 5.88248 236.497 5.88248C236.064 5.88248 235.72 6.03591 235.442 6.34135C235.164 6.64678 235.025 7.02248 235.025 7.46845C235.025 7.91441 235.165 8.28581 235.445 8.59267C235.725 8.90098 236.076 9.05441 236.496 9.05441C236.751 9.05441 236.976 9.00566 237.171 8.91102C237.366 8.81637 237.569 8.67011 237.777 8.47509L238.28 8.98558C238.029 9.24943 237.764 9.44588 237.484 9.57781C237.204 9.70973 236.866 9.7757 236.47 9.7757L236.472 9.77713Z" />
<path d="M240.248 9.76961C239.943 9.76961 239.652 9.69505 239.375 9.54591L239.675 8.95942C239.841 9.05263 240.023 9.09995 240.223 9.09995C240.491 9.09995 240.724 8.93791 240.924 8.61527L239.062 5.23828H239.942L241.331 7.83233L242.554 5.23828H243.402L241.662 8.72425C241.318 9.42116 240.846 9.76961 240.248 9.76961Z" />
<path d="M244.01 10.6544V8.99814H244.443C244.821 8.25104 245.011 7.20712 245.011 5.86923V5.23828H248.121V8.99814H248.676L248.567 10.6544H247.917V9.69792H244.775L244.699 10.6544H244.011H244.01ZM245.277 8.99814H247.337V5.94523H245.762V6.45572C245.762 7.49678 245.6 8.34425 245.277 8.99814Z" />
<path d="M249.367 9.69965L251.33 5.20703H252.057L254.02 9.69965H253.192L252.738 8.62274H250.629L250.17 9.69965H249.367ZM250.916 7.9287H252.452L251.68 6.14484L250.916 7.9287Z" />
<path d="M255.162 9.69935V5.23828H256.922C257.439 5.23828 257.852 5.37451 258.158 5.64696C258.463 5.91798 258.617 6.28364 258.617 6.74251C258.617 7.20138 258.447 7.59572 258.11 7.86387C257.773 8.13202 257.347 8.26538 256.833 8.26538H255.946V9.69935H255.162ZM255.946 7.55844H256.858C257.151 7.55844 257.385 7.48387 257.56 7.33474C257.733 7.18561 257.821 6.99059 257.821 6.74825C257.821 6.493 257.735 6.29655 257.563 6.15889C257.39 6.02123 257.155 5.9524 256.858 5.9524H255.946V7.55844Z" />
<path d="M261.864 9.77713C261.219 9.77713 260.678 9.55487 260.245 9.11177C259.812 8.66724 259.596 8.1209 259.596 7.47131C259.596 6.82173 259.812 6.27969 260.245 5.83372C260.678 5.38776 261.229 5.16406 261.896 5.16406C262.282 5.16406 262.61 5.22286 262.881 5.34187C263.151 5.46089 263.404 5.63297 263.642 5.8581L263.139 6.43742C262.739 6.06746 262.323 5.88248 261.89 5.88248C261.457 5.88248 261.113 6.03591 260.835 6.34135C260.556 6.64678 260.417 7.02248 260.417 7.46845C260.417 7.91441 260.558 8.28581 260.838 8.59267C261.117 8.90098 261.468 9.05441 261.889 9.05441C262.144 9.05441 262.369 9.00566 262.564 8.91102C262.759 8.81637 262.961 8.67011 263.169 8.47509L263.672 8.98558C263.422 9.24943 263.156 9.44588 262.877 9.57781C262.597 9.70973 262.259 9.7757 261.863 9.7757L261.864 9.77713Z"/>
<path d="M265.967 9.69935V5.9653H264.553V5.23828H268.172V5.9653H266.757V9.69935H265.967Z" />
<path d="M269.377 9.69935V5.23828H271.377C271.891 5.23828 272.279 5.37021 272.543 5.63406C272.742 5.83338 272.843 6.08432 272.843 6.38545C272.843 6.82712 272.631 7.15836 272.206 7.37919C272.797 7.57851 273.092 7.94417 273.092 8.47474C273.092 8.86478 272.943 9.16735 272.646 9.37958C272.35 9.5918 271.948 9.69792 271.442 9.69792H269.377V9.69935ZM270.148 7.11821H271.22C271.479 7.11821 271.684 7.06659 271.835 6.96191C271.985 6.85723 272.061 6.70379 272.061 6.50017C272.061 6.32236 271.994 6.18326 271.858 6.08289C271.721 5.98251 271.528 5.93376 271.278 5.93376H270.15V7.11964L270.148 7.11821ZM270.148 9.00388H271.449C271.721 9.00388 271.932 8.95082 272.083 8.84471C272.233 8.73859 272.309 8.58372 272.309 8.37867C272.309 7.97859 272.004 7.77927 271.392 7.77927H270.148V9.00244V9.00388Z" />
<path d="M274.355 9.69935V5.23828H277.662V5.93949H275.138V7.09957H277.375V7.80078H275.138V8.99957H277.693V9.70078H274.354L274.355 9.69935Z" />
<path d="M279 9.69935V5.23828H279.784V7.0924H281.912V5.23828H282.697V9.69935H281.912V7.81942H279.784V9.69935H279Z" />
<path d="M284.219 9.69935V5.23828H285.003V7.0924H287.131V5.23828H287.916V9.69935H287.131V7.81942H285.003V9.69935H284.219Z" />
<path d="M289.438 9.69935V5.23828H290.215V6.84432H291.24C291.75 6.84432 292.156 6.96621 292.46 7.21142C292.764 7.45519 292.916 7.79791 292.916 8.24101C292.916 8.6841 292.766 9.0469 292.465 9.30788C292.163 9.56886 291.753 9.69935 291.234 9.69935H289.438ZM290.215 8.99814H291.221C291.514 8.99814 291.74 8.93361 291.9 8.80312C292.059 8.67263 292.139 8.48335 292.139 8.2324C292.139 8.00297 292.059 7.82802 291.897 7.70614C291.735 7.58568 291.505 7.52402 291.208 7.52402H290.215V8.99671V8.99814ZM293.445 9.69935V5.23828H294.223V9.69935H293.445Z" />
<path d="M295.748 9.69947V5.2384H296.519V8.49494L298.775 5.2384H299.507V9.69947H298.736V6.45011L296.486 9.69947H295.746H295.748ZM298.321 4.64904C298.144 4.80821 297.92 4.88852 297.652 4.88852C297.384 4.88852 297.161 4.80821 296.982 4.64904C296.804 4.48987 296.691 4.27191 296.645 3.99516L297.123 3.90625C297.203 4.19591 297.379 4.33931 297.652 4.33931C297.924 4.33931 298.092 4.19448 298.181 3.90625L298.653 3.99516C298.61 4.27191 298.499 4.48987 298.321 4.64904Z" />
<path d="M133.594 26.3773C132.799 26.3773 132.042 26.1851 131.325 25.798L132.104 24.2751C132.534 24.5174 133.009 24.6393 133.528 24.6393C134.223 24.6393 134.83 24.2206 135.349 23.3803L130.514 14.6016H132.799L136.41 21.3426L139.591 14.6016H141.793L137.272 23.6614C136.377 25.4725 135.151 26.3773 133.595 26.3773H133.594Z" />
<path d="M147.855 26.1952V14.6016H149.893V19.4211H155.425V14.6016H157.463V26.1952H155.425V21.3097H149.893V26.1952H147.855Z" />
<path d="M164.584 26.1952V14.6016H166.589V23.0648L172.452 14.6016H174.356V26.1952H172.353V17.7491L166.507 26.1952H164.585H164.584Z" />
<path d="M181.494 26.1952V14.6016H186.695C188.032 14.6016 189.041 14.9443 189.727 15.6283C190.246 16.1474 190.505 16.7984 190.505 17.5828C190.505 18.7314 189.953 19.5932 188.849 20.1668C190.383 20.6859 191.152 21.6352 191.152 23.0161C191.152 24.0328 190.765 24.8157 189.992 25.3678C189.219 25.9199 188.175 26.1952 186.861 26.1952H181.496H181.494ZM183.499 19.4871H186.281C186.955 19.4871 187.487 19.3523 187.88 19.0813C188.271 18.8103 188.468 18.4102 188.468 17.881C188.468 17.4179 188.291 17.0551 187.938 16.797C187.586 16.5374 187.082 16.4069 186.431 16.4069H183.499V19.4871ZM183.499 24.3898H186.877C187.584 24.3898 188.133 24.2522 188.525 23.9754C188.916 23.6986 189.113 23.2957 189.113 22.7666C189.113 21.7284 188.318 21.2093 186.728 21.2093H183.499V24.3898Z" />
<path d="M197.592 26.1952V14.6016H206.188V16.4241H199.629V19.4383H205.443V21.2595H199.629V24.374H206.272V26.1952H197.593H197.592Z" />
<path d="M212.83 26.1952V14.6016H217.402C218.748 14.6016 219.819 14.9558 220.615 15.6613C221.41 16.3682 221.808 17.3175 221.808 18.5106C221.808 19.7036 221.369 20.7303 220.492 21.4258C219.614 22.1213 218.507 22.4697 217.171 22.4697H214.869V26.1966H212.832L212.83 26.1952ZM214.868 20.63H217.237C217.998 20.63 218.606 20.4364 219.059 20.0506C219.512 19.6649 219.739 19.1558 219.739 18.5278C219.739 17.8653 219.515 17.3548 219.068 16.9949C218.62 16.6364 218.01 16.4571 217.238 16.4571H214.869V20.6314L214.868 20.63Z" />
<path d="M233.418 26.3971C231.739 26.3971 230.338 25.8206 229.211 24.6663C228.085 23.5119 227.521 22.0909 227.521 20.4017C227.521 18.7124 228.085 17.3043 229.211 16.1457C230.338 14.9856 231.767 14.4062 233.501 14.4062C234.505 14.4062 235.358 14.5611 236.061 14.8694C236.762 15.1777 237.422 15.6251 238.04 16.2102L236.732 17.7173C235.694 16.7565 234.611 16.2761 233.485 16.2761C232.36 16.2761 231.468 16.6734 230.744 17.4692C230.021 18.2651 229.66 19.2416 229.66 20.4002C229.66 21.5589 230.024 22.5225 230.752 23.3241C231.481 24.1257 232.391 24.5243 233.485 24.5243C234.148 24.5243 234.733 24.3996 235.241 24.1515C235.748 23.9034 236.273 23.5248 236.814 23.0172L238.121 24.3422C237.469 25.0276 236.779 25.541 236.051 25.8823C235.322 26.225 234.445 26.3956 233.418 26.3956V26.3971Z" />
<path d="M244.398 26.1952V14.6016H246.403V23.0648L252.267 14.6016H254.171V26.1952H252.166V17.7491L246.32 26.1952H244.398Z" />
<path d="M264.157 26.1952V16.4901H260.48V14.6016H269.889V16.4901H266.212V26.1966H264.159L264.157 26.1952Z" />
<path d="M276.182 26.1952V14.6016H284.778V16.4241H278.219V19.4383H284.033V21.2595H278.219V24.374H284.861V26.1952H276.183H276.182Z" />
<path d="M294.268 26.1952V16.4901H290.592V14.6016H300V16.4901H296.323V26.1966H294.27L294.268 26.1952Z" />
<path d="M131.425 37.193V31.3281H134.057C134.732 31.3281 135.244 31.5016 135.589 31.8472C135.852 32.1096 135.984 32.4394 135.984 32.8367C135.984 33.4174 135.704 33.8533 135.145 34.143C135.922 34.4054 136.309 34.8858 136.309 35.5841C136.309 36.0975 136.113 36.4947 135.723 36.7743C135.331 37.054 134.804 37.193 134.138 37.193H131.424H131.425ZM132.439 33.8003H133.847C134.189 33.8003 134.457 33.7315 134.656 33.5952C134.854 33.459 134.953 33.2568 134.953 32.9872C134.953 32.7535 134.864 32.5699 134.685 32.438C134.505 32.3075 134.252 32.2416 133.922 32.2416H132.439V33.8003ZM132.439 36.2796H134.148C134.505 36.2796 134.784 36.2093 134.983 36.0703C135.181 35.9312 135.28 35.7261 135.28 35.4579C135.28 34.9331 134.877 34.6707 134.072 34.6707H132.438V36.2796H132.439Z" />
<path d="M139.486 37.193V31.3281H143.836V32.2502H140.517V33.7759H143.458V34.6979H140.517V36.2724H143.877V37.1945H139.486V37.193Z" />
<path d="M148.551 37.193V32.2831H146.691V31.3281H151.451V32.2831H149.591V37.193H148.551Z" />
<path d="M154.551 37.193V31.3281H158.9V32.2502H155.582V33.7759H158.523V34.6979H155.582V36.2724H158.942V37.1945H154.551V37.193Z" />
<path d="M162.177 37.193V31.3281H164.49C165.171 31.3281 165.713 31.5074 166.115 31.8644C166.518 32.2215 166.719 32.7019 166.719 33.3056C166.719 33.9093 166.496 34.4284 166.052 34.7811C165.607 35.1339 165.048 35.3088 164.371 35.3088H163.207V37.1945H162.176L162.177 37.193ZM163.208 34.3782H164.407C164.793 34.3782 165.1 34.2807 165.329 34.0856C165.559 33.8906 165.673 33.6325 165.673 33.3142C165.673 32.9786 165.56 32.7205 165.333 32.5398C165.107 32.3577 164.799 32.2674 164.407 32.2674H163.208V34.3796V34.3782Z" />
<path d="M169.785 37.193V31.3281H170.799V35.6099L173.766 31.3281H174.729V37.193H173.716V32.9198L170.757 37.193H169.785Z" />
<path d="M178.256 37.193V31.3281H179.287V33.7673H182.086V31.3281H183.117V37.193H182.086V34.7209H179.287V37.193H178.256Z" />
<path d="M186.133 37.1956L188.714 31.2891H189.669L192.25 37.1956H191.16L190.565 35.7788H187.792L187.188 37.1956H186.133ZM188.169 34.8654H190.188L189.174 32.5194L188.169 34.8654Z" />
<path d="M195.266 37.193V31.3281H197.579C198.26 31.3281 198.802 31.5074 199.205 31.8644C199.608 32.2215 199.808 32.7019 199.808 33.3056C199.808 33.9093 199.586 34.4284 199.142 34.7811C198.697 35.1324 198.138 35.3088 197.461 35.3088H196.297V37.1945H195.266V37.193ZM196.297 34.3782H197.494C197.88 34.3782 198.187 34.2807 198.416 34.0856C198.645 33.8906 198.759 33.6325 198.759 33.3142C198.759 32.9786 198.645 32.7205 198.419 32.5398C198.192 32.3577 197.884 32.2674 197.493 32.2674H196.295V34.3796L196.297 34.3782Z" />
<path d="M202.875 37.193V31.3281H203.906V33.7673H206.705V31.3281H207.736V37.193H206.705V34.7209H203.906V37.193H202.875Z" />
<path d="M216.257 36.4085C215.676 37.0007 214.942 37.2976 214.053 37.2976C213.164 37.2976 212.432 37.0036 211.857 36.4186C211.282 35.8321 210.994 35.1136 210.994 34.2647C210.994 33.4158 211.285 32.7118 211.866 32.1195C212.447 31.5273 213.181 31.2305 214.07 31.2305C214.959 31.2305 215.69 31.523 216.265 32.1095C216.84 32.696 217.129 33.4144 217.129 34.2633C217.129 35.1122 216.838 35.8163 216.257 36.4085ZM212.64 35.7432C213.017 36.1475 213.494 36.3497 214.069 36.3497C214.644 36.3497 215.117 36.149 215.488 35.7475C215.86 35.3445 216.046 34.8512 216.046 34.2647C216.046 33.6782 215.858 33.1907 215.481 32.7863C215.104 32.3819 214.628 32.1783 214.053 32.1783C213.478 32.1783 213.005 32.3791 212.632 32.782C212.26 33.1835 212.074 33.6782 212.074 34.2647C212.074 34.8512 212.263 35.3388 212.639 35.7432H212.64Z" />
<path d="M220.387 37.1954V31.3304H221.401V35.6123L224.367 31.3304H225.331V37.1954H224.317V32.9221L221.359 37.1954H220.387ZM223.772 30.5547C223.537 30.764 223.245 30.8687 222.893 30.8687C222.542 30.8687 222.248 30.764 222.013 30.5547C221.778 30.3453 221.63 30.0585 221.568 29.6957L222.196 29.5781C222.302 29.9581 222.535 30.1474 222.892 30.1474C223.249 30.1474 223.47 29.9581 223.587 29.5781L224.207 29.6957C224.151 30.0585 224.006 30.3453 223.771 30.5547H223.772Z" />
<path d="M233.383 37.193V31.3281H234.481L236.267 34.1014L238.052 31.3281H239.15V37.193H238.119V32.9872L236.268 35.7519H236.235L234.399 33.003V37.193H233.386H233.383Z" />
<path d="M242.668 37.193V31.3281H247.017V32.2502H243.699V33.7759H246.64V34.6979H243.699V36.2724H247.059V37.1945H242.668V37.193Z"/>
<path d="M249.621 38.4492V36.271H250.19C250.688 35.2887 250.936 33.9164 250.936 32.157V31.3281H255.026V36.2724H255.754L255.612 38.4506H254.758V37.193H250.626L250.526 38.4506H249.621V38.4492ZM251.289 36.271H253.995V32.2573H251.925V32.9284C251.925 34.2964 251.713 35.4121 251.289 36.271Z"/>
<path d="M258.688 37.193V31.3281H259.701V35.6099L262.668 31.3281H263.632V37.193H262.618V32.9198L259.66 37.193H258.688Z"/>
<path d="M271.691 38.4506V37.193H267.158V31.3281H268.189V36.2638H270.937V31.3281H271.959V36.2638H272.688L272.546 38.4506H271.691Z"/>
<path d="M275.623 37.193V31.3281H276.637V35.6099L279.604 31.3281H280.567V37.193H279.554V32.9198L276.595 37.193H275.623Z"/>
<path d="M284.094 37.193V31.3281H285.125V33.7673H287.924V31.3281H288.955V37.193H287.924V34.7209H285.125V37.193H284.094Z"/>
<path d="M292.473 37.193V31.3281H293.495V33.4404H294.844C295.516 33.4404 296.049 33.601 296.449 33.9222C296.848 34.2434 297.048 34.6951 297.048 35.2758C297.048 35.8566 296.851 36.3355 296.453 36.6797C296.056 37.0224 295.518 37.1945 294.836 37.1945H292.473V37.193ZM293.495 36.271H294.819C295.204 36.271 295.501 36.1864 295.711 36.0158C295.92 35.8451 296.025 35.5956 296.025 35.2658C296.025 34.9647 295.918 34.7338 295.706 34.5746C295.494 34.4155 295.191 34.3352 294.801 34.3352H293.494V36.271H293.495ZM297.744 37.193V31.3281H298.766V37.193H297.744Z" />
<path d="M120.756 4.72656H119.447V38.4506H120.756V4.72656Z"/>
</g>
<defs>
<clipPath id="clip0_1453_499">
<rect width="300" height="54.68" fill="white"/>
</clipPath>
</defs>
</svg>
