<svg xmlns="http://www.w3.org/2000/svg" viewBox="0 0 256 256"><path d="M142.507 42.18c-35.318 8.865-64.78 16.394-65.472 16.729-.692.336-1.652 1.283-2.133 2.104-.869 1.483-.876 1.892-.988 59.231l-.113 57.738-1.594-1.261c-2.414-1.911-6.792-4.166-10.127-5.216-4.557-1.436-13.248-1.658-18.233-.468-11.45 2.735-21.028 11.855-24.481 23.31-1.007 3.342-1.159 4.587-1.171 9.6-.013 5.949.237 7.415 2.126 12.459 2.984 7.966 10.73 15.805 18.905 19.132 11.834 4.816 26.027 2.343 35.296-6.149 5.213-4.776 8.665-10.31 10.51-16.851.912-3.23.921-3.649 1.055-49.557l.135-46.3 57.049-14.254c31.377-7.84 57.385-14.339 57.796-14.444.705-.179.746 1.409.746 28.91v29.099l-1.6-1.266c-2.42-1.915-6.795-4.17-10.133-5.221-4.557-1.436-13.248-1.658-18.233-.468-11.45 2.735-21.028 11.855-24.481 23.31-1.007 3.342-1.159 4.587-1.171 9.6-.013 5.949.237 7.415 2.126 12.459 2.984 7.966 10.73 15.805 18.905 19.132 11.834 4.816 26.027 2.343 35.296-6.149 5.207-4.771 8.653-10.291 10.517-16.851l.926-3.258.125-72.747c.114-66.059.062-72.913-.562-74.554-.842-2.215-2.679-3.594-5.034-3.779-1.264-.1-20.214 4.489-65.987 15.98m59.306 15.367v17.866L144.428 89.76c-31.562 7.891-57.578 14.347-57.813 14.347-.28 0-.428-6.152-.428-17.699V68.71l1.173-.298c.645-.164 26.613-6.678 57.707-14.476a76514.354 76514.354 0 0 0 56.64-14.217c.058-.022.106 8.001.106 17.828m-15.298 93.478c6.738 2.082 12.377 7.712 14.451 14.429 1.009 3.267 1.128 9.026.254 12.309-1.455 5.466-6.399 11.514-11.418 13.969-6.598 3.229-14.735 2.928-21.059-.778-2.476-1.451-6.346-5.427-7.842-8.056-3.817-6.711-3.641-16.145.419-22.52 2.75-4.317 7.989-8.25 12.76-9.58 3.084-.86 9.286-.747 12.435.227m-128 32c6.738 2.082 12.377 7.712 14.451 14.429 1.009 3.267 1.128 9.026.254 12.309-1.455 5.466-6.399 11.514-11.418 13.969-6.598 3.229-14.735 2.928-21.059-.778-2.476-1.451-6.346-5.427-7.842-8.056-3.817-6.711-3.641-16.145.419-22.52 2.75-4.317 7.989-8.25 12.76-9.58 3.084-.86 9.286-.747 12.435.227" fill-rule="evenodd"/></svg>