<svg xmlns="http://www.w3.org/2000/svg" viewBox="0 0 256 256"><path d="M142.315 40.141c-36.461 9.122-65.498 16.594-66.354 17.075-.837.471-1.999 1.552-2.582 2.402l-1.059 1.546-.111 56.438-.112 56.438-3.088-1.64c-12.559-6.665-27.449-5.453-38.901 3.166-5.628 4.236-9.839 10.16-12.152 17.094-7.745 23.222 9.287 47.122 33.671 47.249 17.58.091 32.383-11.972 35.665-29.067.495-2.579.601-11.707.601-51.841V110.29l55.36-13.832c30.448-7.607 55.696-13.917 56.107-14.021.706-.179.747 1.446.747 29.709v29.899l-3.094-1.642c-12.563-6.668-27.451-5.458-38.905 3.163-5.628 4.236-9.839 10.16-12.152 17.094-7.745 23.222 9.287 47.122 33.671 47.249 17.58.091 32.383-11.972 35.665-29.067.877-4.568.901-147.859.025-149.956-1.061-2.538-4.825-5.025-7.53-4.976-.352.006-29.814 7.31-65.472 16.231" fill-rule="evenodd"/></svg>