<?xml version="1.0" encoding="utf-8"?>
<!-- Svg Vector Icons : http://www.onlinewebfonts.com/icon -->
<!DOCTYPE svg PUBLIC "-//W3C//DTD SVG 1.1//EN" "http://www.w3.org/Graphics/SVG/1.1/DTD/svg11.dtd">
<svg version="1.1" xmlns="http://www.w3.org/2000/svg" xmlns:xlink="http://www.w3.org/1999/xlink" x="0px" y="0px" viewBox="0 0 256 256" enable-background="new 0 0 256 256" xml:space="preserve">
<metadata> Svg Vector Icons : http://www.onlinewebfonts.com/icon </metadata>
<g> <path fill="#000000" d="M228.2,236.9V19.2c0-4.7-3.8-8.4-8.4-8.4s-8.4,3.8-8.4,8.4v217.7c0,4.7,3.8,8.4,8.4,8.4 S228.2,241.6,228.2,236.9z M57.8,226l106.6-87.3c7.2-5.9,7.2-15.5,0-21.5L57.8,30c-7.2-5.9-13.1-3.2-13.1,6.2v183.7 C44.7,229.3,50.6,231.9,57.8,226L57.8,226z M68.5,239.1c-18.2,14.9-40.7,4.5-40.7-19.2V36.1c0-23.6,22.4-34.1,40.7-19.2l106.6,87.3 c15.5,12.7,15.5,34.9,0,47.6L68.5,239.1L68.5,239.1z"/></g>
</svg>
