<svg width="24" height="25" viewBox="0 0 24 25" fill="none" xmlns="http://www.w3.org/2000/svg">
<path d="M21.6978 16.538C21.6778 16.522 19.5578 14.898 19.5948 10.508C19.6148 7.976 18.7828 5.726 17.2478 4.173C15.8728 2.78 14.0108 2.01 12.0058 2H11.9928C9.98877 2.01 8.12677 2.78 6.75077 4.174C5.21677 5.727 4.38277 7.976 4.40477 10.508C4.44177 14.838 2.38477 16.475 2.30277 16.538C2.04277 16.731 1.93677 17.068 2.03777 17.376C2.13977 17.684 2.42777 17.891 2.74977 17.891H7.66977C7.77177 20.201 9.66677 22.051 11.9998 22.051C14.3328 22.051 16.2258 20.201 16.3268 17.891H21.2488C21.5708 17.891 21.8588 17.685 21.9588 17.377C22.0618 17.07 21.9558 16.732 21.6958 16.539L21.6978 16.538ZM12.0008 20.548C10.4958 20.548 9.27077 19.371 9.17277 17.89H14.8288C14.7288 19.37 13.5058 20.55 12.0008 20.55V20.548ZM4.38077 16.39C5.12077 15.258 5.92877 13.362 5.90477 10.494C5.88677 8.334 6.54877 6.512 7.81777 5.227C8.91077 4.12 10.3978 3.507 12.0008 3.5C13.6038 3.508 15.0878 4.12 16.1808 5.228C17.4508 6.513 18.1138 8.334 18.0958 10.495C18.0718 13.363 18.8808 15.26 19.6208 16.391H4.38077V16.39Z" fill="#D9D9D9"/>
</svg>
