<svg viewBox="0 0 24 24" fill="none" xmlns="http://www.w3.org/2000/svg"><path d="M5.58 2.04a2.878 2.878 0 0 0-1.675.83 2.9 2.9 0 0 0-.808 1.39c-.075.272-.077.504-.077 7.74 0 7.236.002 7.468.077 7.74.297 1.082 1.043 1.835 2.143 2.163.227.067.388.077 1.26.077s1.033-.01 1.26-.077c1.1-.328 1.846-1.081 2.143-2.163.075-.272.077-.504.077-7.74 0-7.236-.002-7.468-.077-7.74a2.9 2.9 0 0 0-.808-1.39 2.647 2.647 0 0 0-.785-.558c-.477-.237-.688-.274-1.63-.291-.473-.009-.968 0-1.1.019m11 0a2.878 2.878 0 0 0-1.675.83 2.9 2.9 0 0 0-.808 1.39c-.075.272-.077.504-.077 7.74 0 7.236.002 7.468.077 7.74.297 1.082 1.043 1.835 2.143 2.163.227.067.388.077 1.26.077s1.033-.01 1.26-.077c1.1-.328 1.846-1.081 2.143-2.163.075-.272.077-.504.077-7.74 0-7.236-.002-7.468-.077-7.74a2.9 2.9 0 0 0-.808-1.39 2.647 2.647 0 0 0-.785-.558c-.477-.237-.688-.274-1.63-.291-.473-.009-.968 0-1.1.019M7.316 4.063a.872.872 0 0 1 .385.236c.323.323.299-.287.299 7.702 0 7.716.011 7.319-.218 7.62a1.24 1.24 0 0 1-.293.248l-.189.111H5.7l-.189-.111a1.24 1.24 0 0 1-.293-.248c-.229-.301-.218.096-.218-7.62 0-7.99-.024-7.379.299-7.703.248-.247.427-.292 1.184-.295.455-.002.679.014.833.06m11 0a.872.872 0 0 1 .385.236c.323.323.299-.287.299 7.702 0 7.716.011 7.319-.218 7.62a1.24 1.24 0 0 1-.293.248l-.189.111h-1.6l-.189-.111a1.24 1.24 0 0 1-.293-.248c-.229-.301-.218.096-.218-7.62 0-7.99-.024-7.379.299-7.703.248-.247.427-.292 1.184-.295.455-.002.679.014.833.06" fill-rule="evenodd"/></svg>
