<?xml version="1.0" encoding="utf-8"?>
<!-- Svg Vector Icons : http://www.onlinewebfonts.com/icon -->
<!DOCTYPE svg PUBLIC "-//W3C//DTD SVG 1.1//EN" "http://www.w3.org/Graphics/SVG/1.1/DTD/svg11.dtd">
<svg version="1.1" xmlns="http://www.w3.org/2000/svg" xmlns:xlink="http://www.w3.org/1999/xlink" x="0px" y="0px" viewBox="0 0 256 256" enable-background="new 0 0 256 256" xml:space="preserve">
<metadata> Svg Vector Icons : http://www.onlinewebfonts.com/icon </metadata>
<g><g><g><path fill="#000000" d="M205.5,10.3c-5.7,1.2-3-1.4-94.2,89.7c-47.9,47.9-87.3,87.6-87.5,88.3c-1,2.4-13.8,52.1-13.8,53.5c0,2.2,1.9,4.1,4,4.1c1,0,13.6-3.1,28.1-6.9l26.3-6.9l87.1-87c98-98,90.4-89.8,90.4-98.1c-0.1-7-1-8.6-13.6-21.3c-5.9-5.9-11.7-11.5-12.9-12.3C215.3,10.7,210,9.4,205.5,10.3z M214.9,21.4c1.1,0.8,6.2,5.9,11.5,11.2c7.7,7.8,9.7,10.1,10.2,11.8c0.7,2.6,0.7,2.7,0,5.3c-0.5,1.6-2.2,3.7-7.8,9.4l-7.2,7.2l-15.7-15.7c-8.7-8.7-15.7-16-15.7-16.3c0-0.3,3.2-3.6,7-7.4c6.1-6.1,7.3-7,9.4-7.4C209.6,18.9,212.5,19.5,214.9,21.4z M199.4,56.8l15.8,15.8L141.9,146l-73.3,73.3l-16-16l-16-16l73.2-73.2C150.1,73.9,183.1,41,183.3,41C183.4,41,190.7,48.1,199.4,56.8z M46.6,209.9l14.7,14.7l-20.2,5.3c-11.1,3-20.2,5.3-20.3,5.3c-0.1-0.1,5.7-22,9.6-36.7c0.5-1.8,1-3.3,1.2-3.3C31.8,195.2,38.5,201.8,46.6,209.9z"/></g></g></g>
</svg>