<svg width="100%" height="100%" viewBox="0 0 24 24" fill="none" xmlns="http://www.w3.org/2000/svg"><path d="M5.503 1.925c-.286.067-.657.281-.893.515-.252.25-.402.516-.516.92-.071.249-.074.621-.074 8.64s.003 8.391.074 8.64c.114.405.261.666.517.918.685.676 1.59.745 2.529.193.154-.091 2.948-1.944 6.209-4.118 4.259-2.839 6.006-4.025 6.204-4.212.863-.814.863-2.028-.001-2.843-.199-.188-1.951-1.377-6.274-4.259C9.98 4.121 7.137 2.249 6.96 2.16a3.49 3.49 0 0 0-.549-.221 2.26 2.26 0 0 0-.908-.014M12.36 8.11c3.373 2.251 5.74 3.855 5.74 3.89 0 .035-2.48 1.714-6.018 4.075-5.199 3.468-6.022 4.004-6.047 3.94C6 19.927 5.99 4.141 6.024 4.013c.023-.084.033-.081.31.09.157.097 2.869 1.9 6.026 4.007" fill-rule="evenodd"/></svg>
