<?xml version="1.0" encoding="utf-8"?>
<!-- Svg Vector Icons : http://www.onlinewebfonts.com/icon -->
<!DOCTYPE svg PUBLIC "-//W3C//DTD SVG 1.1//EN" "http://www.w3.org/Graphics/SVG/1.1/DTD/svg11.dtd">
<svg version="1.1" width="100px" xmlns="http://www.w3.org/2000/svg" xmlns:xlink="http://www.w3.org/1999/xlink" x="0px" y="0px" viewBox="0 0 256 256" enable-background="new 0 0 256 256" xml:space="preserve">
<metadata> Svg Vector Icons : http://www.onlinewebfonts.com/icon </metadata>
<g><g><path fill="#000000" d="M27.8,19.1v217.7c0,4.7,3.8,8.4,8.4,8.4c4.7,0,8.4-3.8,8.4-8.4V19.1c0-4.7-3.8-8.4-8.4-8.4C31.6,10.6,27.8,14.4,27.8,19.1L27.8,19.1z"/><path fill="#000000" d="M198.2,30L198.2,30L91.6,117.3c-7.2,5.9-7.2,15.5,0,21.5L198.2,226c7.2,5.9,13.1,3.2,13.1-6.2V36.1C211.3,26.7,205.4,24.1,198.2,30L198.2,30z M187.5,16.9L187.5,16.9c18.2-14.9,40.7-4.5,40.7,19.2v183.7c0,23.6-22.4,34.1-40.7,19.2L80.9,151.8c-15.5-12.7-15.5-34.9,0-47.6L187.5,16.9z"/></g></g>
</svg>
