<?xml version="1.0" encoding="utf-8"?>
<!-- Svg Vector Icons : http://www.onlinewebfonts.com/icon -->
<!DOCTYPE svg PUBLIC "-//W3C//DTD SVG 1.1//EN" "http://www.w3.org/Graphics/SVG/1.1/DTD/svg11.dtd">
<svg version="1.1" xmlns="http://www.w3.org/2000/svg" xmlns:xlink="http://www.w3.org/1999/xlink" x="0px" y="0px" viewBox="0 0 256 256" enable-background="new 0 0 256 256" xml:space="preserve">
<metadata> Svg Vector Icons : http://www.onlinewebfonts.com/icon </metadata>
<g><g><g><path fill="#000000" d="M115.2,16.3c-3.3,0.1-7,0.5-8.1,0.8c-5.5,1.5-7.3,8.1-3.4,12c2,1.9,4,2.5,7.8,2c4.3-0.5,15.8-0.5,20.8,0c33.3,3.7,62.1,23.9,76.8,53.8c3.4,6.9,5.5,12.6,7.2,19.6c5.2,20.7,3.1,43.9-5.6,62.8c-1.1,2.4-2.2,4.3-2.3,4.3c-0.1,0-5.2-4.9-11.2-10.9c-6-6-11.5-11.2-12.4-11.6c-3.6-1.5-7.6,0-9.3,3.4c-1,2-1,2.8-0.9,32c0.1,29.4,0.1,30,1.2,31.3c0.5,0.7,1.6,1.8,2.3,2.3c1.3,1,1.9,1,30.4,1.2c16,0.1,30,0,31.1-0.1c2.6-0.4,4.7-2.1,5.7-4.8c1.5-4.1,1.3-4.5-13.1-18.8l-12.9-12.8l2.5-4.8c26.4-50.9,8.4-114.7-41.1-145.5C161.4,20.7,138.9,15.1,115.2,16.3z M205.1,189.3l15.2,15.2h-15.6h-15.5v-15.2c0-8.4,0.1-15.2,0.4-15.2C189.7,174.1,196.7,181,205.1,189.3z"/><path fill="#000000" d="M14.5,21.7c-2,0.9-4,3.3-4.4,5.4c-0.6,3.5,0.2,4.6,13.2,17.7l12.3,12.4l-3.5,4.6c-7.5,9.9-11.9,18.1-15.7,29.3c-4.6,13.3-6.2,23-6.2,36.9c0,18.4,3.6,33.7,11.5,49.6c21.2,42.5,66.3,67,113.5,61.5c7.5-0.9,16.2-2.8,18.8-4.3c4.7-2.6,4.8-9.2,0.3-12.2c-1.9-1.3-4.5-1.4-8.1-0.4c-10.1,2.9-23.3,3.9-35.1,2.5c-22.3-2.6-41.9-12-57.6-27.5c-13.9-13.8-22.9-30.5-27.1-50.2c-1.3-5.9-1.3-7-1.4-18.6c0-9.9,0.1-13.1,0.9-16.7c2.6-12.7,6.5-23.4,12-32.5c2.2-3.6,7.7-11.2,8.1-11.2c0.1,0,5.3,5,11.3,11.2c6.1,6.1,11.9,11.5,12.9,12.1c2.4,1.2,4.5,1.2,6.9-0.2c3.8-2.2,3.7-0.7,3.7-34.4s0.1-32.2-3.7-34.4l-1.9-1.1l-29.7,0C22.1,21.1,15.7,21.2,14.5,21.7z M66.5,51.3v15.8L51,51.7c-8.5-8.5-15.5-15.6-15.5-15.8c0-0.2,7-0.4,15.5-0.4h15.5V51.3z"/></g></g></g>
</svg>