<?xml version="1.0" encoding="utf-8"?>
<!-- Svg Vector Icons : http://www.onlinewebfonts.com/icon -->
<!DOCTYPE svg PUBLIC "-//W3C//DTD SVG 1.1//EN" "http://www.w3.org/Graphics/SVG/1.1/DTD/svg11.dtd">
<svg version="1.1" xmlns="http://www.w3.org/2000/svg" xmlns:xlink="http://www.w3.org/1999/xlink" x="0px" y="0px" viewBox="0 0 256 256" enable-background="new 0 0 256 256" xml:space="preserve">
<metadata> Svg Vector Icons : http://www.onlinewebfonts.com/icon </metadata>
<g><g><path fill="#000000" d="M215.5,245.1H39.9l-1.2-0.2c-5.1-1-10.5-3.9-16.2-8.7c-5.7-4.8-9.4-9.7-11-14.6c-0.2-0.3-0.3-0.7-0.4-1c-0.1-0.3-0.2-0.7-0.2-1.1c-0.1-0.4-0.1-0.8-0.1-1.1l-0.5-1c0-0.3-0.1-0.7-0.2-1V40.8l0.2-0.5l0.2-0.7c0.5-2.8,1.6-5.7,3.4-8.7c1.8-3,4-5.9,6.5-8.5c2.5-2.6,5.3-4.9,8.2-6.9c2.9-2,5.7-3.3,8.4-3.9c0.3-0.2,0.7-0.3,1-0.4c0.3-0.1,0.7-0.2,1.1-0.2c0.4-0.1,0.7-0.1,0.9-0.1h156.5c9.8,2.1,19.3,7.1,28.5,15c11,9.2,18,20.5,21.1,34.1v156.5c-0.3,0.7-0.5,1.1-0.5,1.2c-1,5.4-4.3,10.8-10.1,16.3c-5.7,5.5-11.4,9-16.9,10.4c-0.5,0.2-0.9,0.3-1.3,0.4C216.7,244.8,216.2,244.9,215.5,245.1L215.5,245.1z M127.7,215.2h77c3.1,0,5.5-0.9,7.2-2.6c1.7-1.7,2.6-4.1,2.6-7.2V145c0-1.5-0.2-2.8-0.6-4c-0.4-1.2-1-2.3-1.8-3.1c-0.8-0.8-1.8-1.5-3.1-1.9c-1.2-0.5-2.7-0.7-4.3-0.7H50.7c-6.5,0-9.8,3.3-9.8,9.8v60.3c0,1.3,0.1,2.3,0.2,2.9c1.2,4.6,4.3,6.9,9.6,6.9H127.7L127.7,215.2z M123.3,105.1h49.6c6.9,0,10.3-3.4,10.3-10.3V52.1c0-6.7-3.4-10.1-10.3-10.1H66.7c-6.7,0-10.1,3.3-10.1,10.1V95c0,3.3,0.8,5.8,2.5,7.5c1.6,1.7,4.2,2.6,7.6,2.6H123.3L123.3,105.1z M135.6,57h30.9v31.9h-30.9V57z"/></g></g>
</svg>