<?xml version="1.0" encoding="utf-8"?>
<!-- Svg Vector Icons : http://www.onlinewebfonts.com/icon -->
<!DOCTYPE svg PUBLIC "-//W3C//DTD SVG 1.1//EN" "http://www.w3.org/Graphics/SVG/1.1/DTD/svg11.dtd">
<svg version="1.1" xmlns="http://www.w3.org/2000/svg" xmlns:xlink="http://www.w3.org/1999/xlink" x="0px" y="0px" viewBox="0 0 256 256" enable-background="new 0 0 256 256" xml:space="preserve">
<metadata> Svg Vector Icons : http://www.onlinewebfonts.com/icon </metadata>
<g><g><path d="M126.4,141.9c27.7-9.9,47.5-36.4,47.5-67.5c0-39.6-32.1-71.7-71.7-71.7c-39.6,0-71.7,32.1-71.7,71.7c0,31.1,19.8,57.6,47.5,67.5c-39.2,12.3-68,53.8-68,103.1c0,2.7,0.1,5.4,0.3,8.1h2.4v0.1h179.8v-0.1h1.7c0.2-2.7,0.3-5.3,0.3-8.1C194.4,195.8,165.6,154.2,126.4,141.9z M45.2,74.4c0-31.5,25.5-57,57-57s57,25.5,57,57s-25.5,57-57,57S45.2,105.9,45.2,74.4z M24.8,238.6c2.8-47.9,36.4-85.7,77.4-85.7c41,0,74.5,37.8,77.4,85.7H24.8z"/><path fill="#000000" d="M238.6,55.5h-44.9c-4.1,0-7.4,3.3-7.4,7.4l0,0c0,4.1,3.3,7.4,7.4,7.4h44.9c4.1,0,7.4-3.3,7.4-7.4l0,0C246,58.8,242.7,55.5,238.6,55.5z"/><path fill="#000000" d="M238.6,99.7h-54.3c-4.1,0-7.4,3.3-7.4,7.4l0,0c0,4.1,3.3,7.4,7.4,7.4h54.3c4.1,0,7.4-3.3,7.4-7.4l0,0C246,103,242.7,99.7,238.6,99.7z"/><path fill="#000000" d="M238.6,137h-70c-4.1,0-7.4,3.3-7.4,7.4l0,0c0,4.1,3.3,7.4,7.4,7.4h70c4.1,0,7.4-3.3,7.4-7.4l0,0C246,140.4,242.7,137,238.6,137z"/><path fill="#000000" d="M238.6,174.7h-35.5c-4.1,0-7.4,3.3-7.4,7.4l0,0c0,4.1,3.3,7.4,7.4,7.4h35.4c4.1,0,7.4-3.3,7.4-7.4l0,0C246,178,242.7,174.7,238.6,174.7z"/></g></g>
</svg>
