<!-- icon666.com - MILLIONS vector ICONS FREE --><svg version="1.1" id="Capa_1" xmlns="http://www.w3.org/2000/svg" xmlns:xlink="http://www.w3.org/1999/xlink" x="0px" y="0px" viewBox="0 0 512 512" style="enable-background:new 0 0 512 512;" xml:space="preserve"><g><g><path d="M394.627,264.494V60h-100V0h-150v60h-100v452h350V387.486l-30,15.005V482h-290V90h290v189.499L394.627,264.494z M264.627,60h-90V30h90V60z"></path></g></g><g><g><polygon points="445.004,272.84 195.887,397.44 162.352,442.166 218.253,442.159 467.373,317.558 "></polygon></g></g><g><g><rect x="174.63" y="150" width="150" height="30"></rect></g></g><g><g><rect x="114.63" y="150" width="30" height="30"></rect></g></g><g><g><rect x="174.63" y="210" width="150" height="30"></rect></g></g><g><g><rect x="114.63" y="210" width="30" height="30"></rect></g></g><g><g><rect x="174.63" y="270" width="150" height="30"></rect></g></g><g><g><rect x="114.63" y="270" width="30" height="30"></rect></g></g></svg>