<!-- icon666.com - MILLIONS vector ICONS FREE --><svg version="1.1" id="Capa_1" xmlns="http://www.w3.org/2000/svg" xmlns:xlink="http://www.w3.org/1999/xlink" x="0px" y="0px" viewBox="0 0 512 512" style="enable-background:new 0 0 512 512;" xml:space="preserve"><g><g><polygon points="445.004,282.84 195.887,407.44 162.352,452.166 218.253,452.159 467.373,327.558 "></polygon></g></g><g><g><path d="M394.627,274.494V60h-100V0h-150v60h-100v452h350V397.486l-169.288,84.672l-122.983,0.016l73.777-98.397L394.627,274.494z M144.627,280h-30v-30h30V280z M144.627,220h-30v-30h30V220z M144.627,160h-30v-30h30V160z M174.627,30h90v30h-90V30z M174.627,130h150v30h-150V130z M174.627,190h150v30h-150V190z M174.627,250h150v30h-150V250z"></path></g></g></svg>