<?xml version="1.0" encoding="utf-8"?>
<!-- Svg Vector Icons : http://www.onlinewebfonts.com/icon -->
<!DOCTYPE svg PUBLIC "-//W3C//DTD SVG 1.1//EN" "http://www.w3.org/Graphics/SVG/1.1/DTD/svg11.dtd">
<svg version="1.1" xmlns="http://www.w3.org/2000/svg" xmlns:xlink="http://www.w3.org/1999/xlink" x="0px" y="0px" viewBox="0 0 256 256" enable-background="new 0 0 256 256" xml:space="preserve">
<metadata> Svg Vector Icons : http://www.onlinewebfonts.com/icon </metadata>
<g><g><path fill="#000000" d="M145.7,10h-35.4c-3.3,0-5.9,2.6-5.9,5.9v35.4c0,3.3,2.6,5.9,5.9,5.9h35.4c3.3,0,5.9-2.6,5.9-5.9V15.9C151.6,12.6,149,10,145.7,10z M145.7,104.4h-35.4c-3.3,0-5.9,2.6-5.9,5.9v35.4c0,3.3,2.6,5.9,5.9,5.9h35.4c3.3,0,5.9-2.6,5.9-5.9v-35.4C151.6,107,149,104.4,145.7,104.4z M145.7,198.8h-35.4c-3.3,0-5.9,2.6-5.9,5.9v35.4c0,3.3,2.6,5.9,5.9,5.9h35.4c3.3,0,5.9-2.6,5.9-5.9v-35.4C151.6,201.4,149,198.8,145.7,198.8z"/></g></g>
</svg>