<?xml version="1.0" encoding="utf-8"?>
<!-- Svg Vector Icons : http://www.onlinewebfonts.com/icon -->
<!DOCTYPE svg PUBLIC "-//W3C//DTD SVG 1.1//EN" "http://www.w3.org/Graphics/SVG/1.1/DTD/svg11.dtd">
<svg version="1.1" xmlns="http://www.w3.org/2000/svg" xmlns:xlink="http://www.w3.org/1999/xlink" x="0px" y="0px" viewBox="0 0 256 256" enable-background="new 0 0 256 256" xml:space="preserve">
<metadata> Svg Vector Icons : http://www.onlinewebfonts.com/icon </metadata>
<g><g><g><path fill="#000000" d="M92.4,13.3c-2,2.2-3.1,6.6-3.1,12.9v9.6H61.4c-35.6,0-38.5,1.3-38.5,17v8.8H128h105.1v-8.8c0-15.7-3-17-38.5-17h-27.8V26c0-15.7-0.7-16-39.1-16C98.7,10,95,10.4,92.4,13.3z"/><path fill="#000000" d="M36.7,86.9c0.6,5.9,3.1,40.9,5.5,78c4.1,58.1,5,67.8,7.9,71.9c6.8,9,8.1,9.2,77.8,9.2c69.7,0,71-0.2,77.8-9.2c3-4.1,3.9-13.8,7.9-71.9c2.4-37.1,5-72.1,5.5-78l1.1-10.5H128H35.6L36.7,86.9z M85.4,107c3.7,4.6,3.9,7.2,3.9,52.2c0,26-0.6,49-1.1,51.4c-1.8,6.5-10.9,10.5-17.5,7.7c-8.5-3.5-9.4-10.1-8.7-62.3c0.6-46.6,0.6-46.8,5-50.3C73.2,100.7,80.8,101.3,85.4,107z M136.8,105.9c4.1,3.7,4.1,4.8,4.1,54.2c0,46.3-0.4,50.9-3.3,54.8c-4.8,5.7-14.4,5.7-19.2,0c-3-3.9-3.3-8.5-3.3-54.8c0-49.4,0-50.5,4.1-54.2c2.2-2,6.3-3.7,8.8-3.7C130.6,102.2,134.6,103.8,136.8,105.9z M189,105.7c4.4,3.5,4.4,3.7,5,50.3c0.7,52.2-0.2,58.8-8.7,62.3c-6.6,2.8-15.7-1.3-17.5-7.7c-0.6-2.4-1.1-25.4-1.1-51.4c0-45,0.2-47.6,3.9-52.2C175.2,101.3,182.8,100.7,189,105.7z"/></g></g></g>
</svg>