<?xml version="1.0" encoding="utf-8"?>
<!-- Svg Vector Icons : http://www.onlinewebfonts.com/icon -->
<!DOCTYPE svg PUBLIC "-//W3C//DTD SVG 1.1//EN" "http://www.w3.org/Graphics/SVG/1.1/DTD/svg11.dtd">
<svg version="1.1" xmlns="http://www.w3.org/2000/svg" xmlns:xlink="http://www.w3.org/1999/xlink" x="0px" y="0px" viewBox="0 0 256 256" enable-background="new 0 0 256 256" xml:space="preserve">
<metadata> Svg Vector Icons : http://www.onlinewebfonts.com/icon </metadata>
<g><g><g><path d="M129.8,37.3c-2.6,0.9-2.7,1-32.4,22.5C70.5,79.3,67.7,81.2,63.7,82.7c-6.7,2.4-7.5,2.6-24.3,2.9l-16,0.3l-3,1.5c-3.8,1.9-6.9,5.1-8.9,9.3l-1.5,3.1l-0.1,9.9c0,5.4,0,18.4,0.3,28.8l0.4,18.9l1.5,3c1.8,3.7,5.5,7.3,9.2,9.1l2.7,1.2l15.7,0.3c17,0.3,18.5,0.5,25.6,3.4c3.9,1.6,2.6,0.7,33.9,23.3c15,10.8,27.9,20.1,28.8,20.5c0.9,0.5,3,0.9,4.9,1.1c3,0.2,3.5,0.1,5.7-1.1c2.6-1.4,4.7-4,5.5-6.9c0.4-1.4,0.5-22.6,0.4-82.8l-0.1-80.9l-1.8-3.5c-0.9-1.9-2.4-4.1-3.3-4.9C136.7,36.8,133.1,36.1,129.8,37.3z M132.5,127.6c0,43.7,0,79.8-0.1,80.1c-0.3,0.8,1.8,2.3-30.2-20.9c-15.1-10.9-29-20.7-30.8-21.6l-3.4-1.8v-35.7V92.1l2.9-1.4c1.6-0.7,7.4-4.7,13-8.7c36.6-26.5,47.4-34.3,47.9-34.1C132.2,48,132.4,69.6,132.5,127.6z M57.4,127.7v32.4l-1.9-0.4c-1.1-0.2-8.2-0.4-15.7-0.4c-13.3,0-13.7,0-15.3-1c-0.9-0.6-2.1-1.9-2.6-3c-1-1.8-1-2.5-1.2-27.8c-0.2-28.7-0.3-28,2.9-30.3c1.4-1,1.8-1,16.3-1.2c8.2-0.1,15-0.4,15.2-0.6c0.2-0.2,0.8-0.3,1.4-0.3h1.1V127.7z"/><path fill="#000000" d="M167.7,37.8c-2.6,2.2-3.1,6-0.9,8c0.6,0.5,2.4,1.3,4,1.7c15.6,3.9,28.9,11.3,40,22.3c15.6,15.5,24.1,35.6,24.1,57.2c0,7.8-0.6,12.5-2.3,19.8c-7.1,28.8-29.8,51.7-59.3,59.9c-5.8,1.6-7,2.6-7,5.6c0,3.1,2.4,5.9,5.2,5.9c3,0,15.2-4.2,22.2-7.7c9.1-4.6,16.1-9.5,23.7-17c8.7-8.5,14.4-16.3,19.4-26.6c15.2-31.4,11.4-67.6-9.8-95.5c-8.5-11.2-20.6-21-33.8-27.5c-6.6-3.3-17.4-7-21.2-7.3C169.5,36.6,169,36.7,167.7,37.8z"/><path fill="#000000" d="M169.6,86c-2.7,1.6-3.8,5.5-2.2,7.7c0.4,0.6,2.4,2.1,4.3,3.4c5.4,3.5,10.4,9,13,14.3c3.1,6.3,3.7,9.1,3.7,16.5c0,5.7-0.1,6.6-1.5,10.6c-0.8,2.4-2.2,5.7-3.2,7.4c-2.4,4.1-7.9,9.7-12.4,12.7c-4.2,2.8-4.7,3.5-4.7,6.1c0,3.2,3.2,6,6.3,5.5c1.9-0.3,8.3-4.5,11.8-7.7c7.2-6.6,12.3-15.6,14.3-25.4c1.2-5.8,1-15.9-0.6-21.4c-3-10.9-10.1-21-19.6-27.3C173.5,84.8,172.1,84.5,169.6,86z"/></g></g></g>
</svg>
