<?xml version="1.0" encoding="utf-8"?>
<!-- Svg Vector Icons : http://www.onlinewebfonts.com/icon -->
<!DOCTYPE svg PUBLIC "-//W3C//DTD SVG 1.1//EN" "http://www.w3.org/Graphics/SVG/1.1/DTD/svg11.dtd">
<svg version="1.1" xmlns="http://www.w3.org/2000/svg" xmlns:xlink="http://www.w3.org/1999/xlink" x="0px" y="0px" viewBox="0 0 256 256" enable-background="new 0 0 256 256" xml:space="preserve">
<metadata> Svg Vector Icons : http://www.onlinewebfonts.com/icon </metadata>
<g><g><g><path d="M128.3,37.8c-1.1,0.6-14.4,10-29.5,21C68.2,80.9,68.7,80.5,64.6,82.2c-6.7,2.8-9,3.1-25.1,3.3c-8.1,0.1-15.6,0.5-16.6,0.7c-4.5,1.2-9,5.3-11.4,10.5L10,99.7l0.1,27.7c0.1,30.4,0.1,30.6,3,34.9c1.9,3,4.6,5.3,8.2,7l3,1.4l15.7,0.3c14.3,0.2,16,0.4,19.4,1.3c7.2,2,10.3,4,38.9,24.7c15,10.9,28.2,20.4,29.3,21c1.7,1,2.5,1.2,6.2,1.2c4,0,4.3-0.1,6.2-1.4c1.3-1,2.4-2.3,3.4-4.2l1.4-2.7l0.1-80c0.1-87,0.2-83-2.4-88.2c-2.1-4.1-5.3-6.1-9.6-6.1C131.2,36.7,129.7,37.1,128.3,37.8z M133,127.4c0,44-0.1,80.1-0.3,80.3c-0.4,0.4-0.6,0.3-29.7-20.9c-29.8-21.6-29.1-21.1-32.2-22.5l-2.4-1.1v-35.8V91.7l3.1-1.6c1.7-0.9,16.1-10.9,31.9-22.4c15.8-11.4,28.9-20.7,29.2-20.5C132.8,47.3,133,80.7,133,127.4z M57.8,127.3v32.4l-15.1-0.1c-8.4,0-15.6-0.2-16.2-0.3c-1.4-0.3-3.7-2.4-4.6-4.1c-0.7-1.2-0.8-4.4-1-27.7l-0.2-26.3l1.1-1.6c0.6-0.9,2-2.1,3.1-2.7c2-1,2.5-1,15.5-1.1c10.9,0,15.9-0.2,17.2-0.8C57.7,94.9,57.8,109.5,57.8,127.3z"/><path fill="#000000" d="M174.3,90.5c-2.6,1.2-4.3,4.1-3.6,6.6c0.2,0.9,5.4,6.4,15,16.1l14.7,14.8l-14.8,14.8c-12,12-14.8,15-15,16.3c-0.6,3.3,2.4,6.5,6,6.5c1.8,0,2.2-0.4,16.8-14.9l14.9-14.9l14.9,14.9l14.9,14.9h2.2c1.9,0,2.4-0.2,3.7-1.5c1.8-1.8,2.3-3.4,1.8-5.3c-0.2-0.8-5.4-6.3-15-16l-14.8-14.8l14.8-14.8c9.6-9.7,14.8-15.2,15-16.1c0.5-1.8-0.1-3.5-1.8-5.3c-1.3-1.3-1.8-1.5-3.7-1.5H238l-14.9,14.9L208.2,120l-14.7-14.6c-12.7-12.7-16.1-15.6-17.5-15.6C175.8,89.9,175,90.1,174.3,90.5z"/></g></g></g>
</svg>
